{
  "asset": {
    "generator": "gltfeditor.com",
    "version": "2.0"
  },
  "buffers": [
    {
      "uri": "data:application/octet-stream;base64,",
      "byteLength": 62288
    }
  ],
  "bufferViews": [
    {
      "buffer": 0,
      "byteOffset": 0,
      "byteLength": 57728,
      "byteStride": 32,
      "target": 34962
    },
    {
      "buffer": 0,
      "byteOffset": 57728,
      "byteLength": 4560,
      "target": 34963
    }
  ],
  "accessors": [
    {
      "bufferView": 0,
      "byteOffset": 0,
      "componentType": 5126,
      "normalized": false,
      "count": 1804,
      "min": [
        -8.441493034362793,
        -7.8619537353515625,
        -21.18177032470703
      ],
      "max": [
        8.441493034362793,
        14.179387092590332,
        -2.359163999557495
      ],
      "type": "VEC3"
    },
    {
      "bufferView": 0,
      "byteOffset": 12,
      "componentType": 5126,
      "normalized": false,
      "count": 1804,
      "min": [
        -0.9942324757575989,
        -0.9848259687423706,
        -0.9941564202308655
      ],
      "max": [
        0.9942324757575989,
        0.9998961687088013,
        1.000001072883606
      ],
      "type": "VEC3"
    },
    {
      "bufferView": 0,
      "byteOffset": 24,
      "componentType": 5126,
      "normalized": false,
      "count": 1804,
      "min": [
        0.1832229495048523,
        -0.9640137553215027
      ],
      "max": [
        0.8630052208900452,
        -0.12351441383361816
      ],
      "type": "VEC2"
    },
    {
      "bufferView": 1,
      "byteOffset": 0,
      "componentType": 5123,
      "normalized": false,
      "count": 2280,
      "min": [
        0
      ],
      "max": [
        1803
      ],
      "type": "SCALAR"
    }
  ],
  "scene": 0,
  "scenes": [
    {
      "nodes": [
        0
      ],
      "name": "headOccluder"
    }
  ],
  "nodes": [
    {
      "name": "Model",
      "mesh": 0
    }
  ],
  "meshes": [
    {
      "primitives": [
        {
          "material": 0,
          "mode": 4,
          "attributes": {
            "POSITION": 0,
            "NORMAL": 1,
            "TEXCOORD_0": 2
          },
          "indices": 3
        }
      ]
    }
  ],
  "materials": [
    {
      "pbrMetallicRoughness": {
        "baseColorFactor": [
          1,
          0.07450980392156863,
          0,
          1
        ],
        "metallicFactor": 0,
        "roughnessFactor": 0
      },
      "emissiveFactor": [
        0,
        0,
        0
      ],
      "alphaMode": "OPAQUE",
      "doubleSided": false
    }
  ]
}